<svg width="40" height="40" viewBox="0 0 40 40" fill="none" xmlns="http://www.w3.org/2000/svg">
<circle cx="20.222" cy="17.7366" r="5.88464" fill="#F0F0EF"/>
<path fill-rule="evenodd" clip-rule="evenodd" d="M28.4853 9.02943C33.1716 13.7157 33.1716 21.3137 28.4853 26L20 34.4853L11.5147 26C6.82843 21.3137 6.82843 13.7157 11.5147 9.02943C16.201 4.34314 23.799 4.34314 28.4853 9.02943ZM20 20.9433C21.8936 20.9433 23.4286 19.4083 23.4286 17.5147C23.4286 15.6212 21.8936 14.0862 20 14.0862C18.1065 14.0862 16.5714 15.6212 16.5714 17.5147C16.5714 19.4083 18.1065 20.9433 20 20.9433Z" fill="black"/>
<path d="M28.4853 9.02943L27.7782 9.73653L27.7782 9.73653L28.4853 9.02943ZM20 34.4853L19.2929 35.1924L20 35.8995L20.7071 35.1924L20 34.4853ZM11.5147 26L12.2218 25.2929L12.2218 25.2929L11.5147 26ZM11.5147 9.02943L12.2218 9.73653L12.2218 9.73653L11.5147 9.02943ZM29.1924 26.7071C34.2692 21.6303 34.2692 13.3991 29.1924 8.32232L27.7782 9.73653C32.0739 14.0323 32.0739 20.9971 27.7782 25.2929L29.1924 26.7071ZM20.7071 35.1924L29.1924 26.7071L27.7782 25.2929L19.2929 33.7782L20.7071 35.1924ZM10.8076 26.7071L19.2929 35.1924L20.7071 33.7782L12.2218 25.2929L10.8076 26.7071ZM10.8076 8.32232C5.7308 13.3991 5.7308 21.6303 10.8076 26.7071L12.2218 25.2929C7.92606 20.9971 7.92606 14.0323 12.2218 9.73653L10.8076 8.32232ZM29.1924 8.32232C24.1156 3.24551 15.8844 3.24551 10.8076 8.32232L12.2218 9.73653C16.5176 5.44077 23.4824 5.44077 27.7782 9.73653L29.1924 8.32232ZM22.4286 17.5147C22.4286 18.856 21.3413 19.9433 20 19.9433V21.9433C22.4458 21.9433 24.4286 19.9606 24.4286 17.5147H22.4286ZM20 15.0862C21.3413 15.0862 22.4286 16.1735 22.4286 17.5147H24.4286C24.4286 15.0689 22.4458 13.0862 20 13.0862V15.0862ZM17.5714 17.5147C17.5714 16.1735 18.6587 15.0862 20 15.0862V13.0862C17.5542 13.0862 15.5714 15.0689 15.5714 17.5147H17.5714ZM20 19.9433C18.6587 19.9433 17.5714 18.856 17.5714 17.5147H15.5714C15.5714 19.9606 17.5542 21.9433 20 21.9433V19.9433Z" fill="#F0F0EF" fill-opacity="0.24"/>
</svg>
