<svg width="40" height="40" viewBox="0 0 40 40" fill="none" xmlns="http://www.w3.org/2000/svg">
<circle cx="20.2452" cy="17.5" r="6.5" fill="#F0F0EF"/>
<path fill-rule="evenodd" clip-rule="evenodd" d="M29.3726 7.88225C34.5489 13.0586 34.5489 21.4511 29.3726 26.6274L20 36L10.6274 26.6274C5.45109 21.4511 5.45109 13.0586 10.6274 7.88225C15.8038 2.70592 24.1963 2.70592 29.3726 7.88225ZM20 21.042C22.0916 21.042 23.7871 19.3464 23.7871 17.2549C23.7871 15.1633 22.0916 13.4678 20 13.4678C17.9085 13.4678 16.2129 15.1633 16.2129 17.2549C16.2129 19.3464 17.9085 21.042 20 21.042Z" fill="#ED5700"/>
<path d="M29.3726 7.88225L28.6655 8.58936L29.3726 7.88225ZM20 36L19.2929 36.7071L20 37.4142L20.7071 36.7071L20 36ZM10.6274 26.6274L11.3345 25.9203L11.3345 25.9203L10.6274 26.6274ZM10.6274 7.88225L11.3345 8.58936L11.3345 8.58936L10.6274 7.88225ZM30.0797 27.3345C35.6466 21.7677 35.6466 12.742 30.0797 7.17514L28.6655 8.58936C33.4513 13.3752 33.4513 21.1345 28.6655 25.9203L30.0797 27.3345ZM20.7071 36.7071L30.0797 27.3345L28.6655 25.9203L19.2929 35.2929L20.7071 36.7071ZM9.92032 27.3345L19.2929 36.7071L20.7071 35.2929L11.3345 25.9203L9.92032 27.3345ZM9.92032 7.17514C4.35346 12.742 4.35346 21.7677 9.92032 27.3345L11.3345 25.9203C6.54873 21.1345 6.54873 13.3752 11.3345 8.58936L9.92032 7.17514ZM30.0797 7.17514C24.5128 1.60828 15.4872 1.60829 9.92032 7.17514L11.3345 8.58936C16.1203 3.80355 23.8797 3.80355 28.6655 8.58936L30.0797 7.17514ZM22.7871 17.2549C22.7871 18.7941 21.5393 20.042 20 20.042V22.042C22.6439 22.042 24.7871 19.8987 24.7871 17.2549H22.7871ZM20 14.4678C21.5393 14.4678 22.7871 15.7156 22.7871 17.2549H24.7871C24.7871 14.611 22.6439 12.4678 20 12.4678V14.4678ZM17.2129 17.2549C17.2129 15.7156 18.4607 14.4678 20 14.4678V12.4678C17.3562 12.4678 15.2129 14.611 15.2129 17.2549H17.2129ZM20 20.042C18.4607 20.042 17.2129 18.7941 17.2129 17.2549H15.2129C15.2129 19.8987 17.3562 22.042 20 22.042V20.042Z" fill="#F0F0EF" fill-opacity="0.24"/>
</svg>
