<svg width="74" height="32" viewBox="0 0 74 32" fill="none" xmlns="http://www.w3.org/2000/svg">
<rect x="21.198" width="32" height="32" rx="16" fill="white"/>
<path d="M27.689 19.5853H26.2977V12.3077H28.4381L30.2575 18.087L32.0769 12.3077H34.2174V19.5853H32.7191V14.2341L31.0067 19.5853H29.4014L27.689 14.1271V19.5853ZM37.3211 19.5853H35.8228V12.3077H37.3211V19.5853ZM40.4248 19.5853H39.0335V12.3077H40.8529L43.7425 17.5518V12.3077H45.1338V19.5853H43.3144L40.4248 14.3411V19.5853ZM48.2375 19.5853H46.7392V12.3077H48.2375V19.5853ZM58.8328 22.2609H51.9833C52.3044 21.4047 52.6254 20.5485 52.8395 19.5853H61.5084L63.7559 17.3378H53.1606C53.1606 16.9097 53.2676 16.4816 53.2676 16.0535C53.2676 15.6254 53.2676 15.1973 53.1606 14.6622H66.4315L68.679 12.4147H52.7325C52.5184 11.4515 52.1973 10.5953 51.8763 9.73913H71.3545L73.602 7.49164H50.592C47.7024 2.99666 42.7793 0 37 0C31.2208 0 26.2977 2.99666 23.408 7.49164H0.39801L2.6455 9.73913H22.1238C21.8027 10.5953 21.4816 11.4515 21.2676 12.4147H5.32109L7.56858 14.6622H20.8395C20.8395 15.0903 20.7325 15.5184 20.7325 16.0535C20.7325 16.4816 20.7325 16.9097 20.8395 17.3378H10.2442L12.4917 19.5853H21.1606C21.3746 20.5485 21.6957 21.4047 22.0167 22.2609H15.5953L17.8428 24.5084H23.6221C26.5117 29.0033 31.4348 32 37.2141 32C42.9933 32 47.9164 29.0033 50.806 24.5084H56.5853L58.8328 22.2609ZM37.2141 29.7525C29.6154 29.7525 23.408 23.5451 23.408 15.9465C23.408 8.34783 29.6154 2.14047 37.2141 2.14047C44.8127 2.14047 51.0201 8.34783 51.0201 15.9465C51.0201 23.5451 44.8127 29.7525 37.2141 29.7525Z" fill="black"/>
</svg>
